<?xml version="1.0" standalone="no"?>
<!DOCTYPE svg PUBLIC "-//W3C//DTD SVG 20010904//EN"
 "http://www.w3.org/TR/2001/REC-SVG-20010904/DTD/svg10.dtd">
<svg version="1.0" xmlns="http://www.w3.org/2000/svg"
 width="1200.000000pt" height="900.000000pt" viewBox="0 0 1200.000000 900.000000"
 preserveAspectRatio="xMidYMid meet">

<g transform="translate(0.000000,900.000000) scale(0.100000,-0.100000)"
fill="#000000" stroke="none">
<path d="M3565 6618 c57 -65 128 -206 157 -313 22 -79 23 -91 28 -941 l5 -860
34 -68 c39 -77 67 -105 691 -701 524 -501 506 -484 486 -451 -135 217 -230
437 -283 656 l-26 105 -7 640 c-7 673 -7 666 -56 835 -57 197 -229 432 -399
545 -33 21 -64 42 -68 46 -13 10 139 -18 246 -46 230 -61 478 -162 690 -282
59 -34 107 -58 107 -53 0 14 -197 181 -328 278 -270 199 -582 374 -952 534
-122 52 -332 128 -357 128 -9 0 4 -21 32 -52z"/>
<path d="M8325 6626 c-502 -179 -1043 -490 -1397 -803 -54 -48 -98 -90 -98
-94 0 -4 48 20 108 54 209 119 475 227 692 282 116 29 255 55 243 46 -4 -4
-35 -25 -68 -46 -170 -114 -342 -348 -400 -549 -48 -164 -48 -160 -55 -831 -7
-604 -8 -645 -28 -728 -54 -223 -160 -471 -288 -673 -22 -35 17 1 616 575 261
251 489 473 507 493 17 21 44 64 60 96 l28 57 5 860 c5 849 6 861 28 940 29
107 100 248 157 313 58 65 50 65 -110 8z"/>
<path d="M5550 3793 l0 -988 24 -50 c15 -32 52 -77 102 -125 44 -41 131 -125
196 -187 64 -62 121 -113 128 -113 7 0 62 49 123 108 62 60 151 146 199 191
142 136 129 12 126 1167 l-3 988 -90 -75 c-133 -111 -258 -256 -325 -376 -13
-24 -27 -43 -30 -43 -3 0 -17 19 -30 43 -35 62 -118 173 -184 245 -51 55 -189
176 -223 196 -10 6 -13 -193 -13 -981z"/>
</g>
</svg>
